<svg width="500" height="500" viewBox="0 0 500 500" fill="none" xmlns="http://www.w3.org/2000/svg">
<rect width="500" height="500" rx="250" fill="url(#paint0_linear_67_2)"/>
<mask id="path-2-outside-1_67_2" maskUnits="userSpaceOnUse" x="43" y="221" width="414" height="58" fill="black">
<rect fill="white" x="43" y="221" width="414" height="58"/>
<path d="M50.6719 271V229.545H68.6463C71.804 229.545 74.4556 229.971 76.6012 230.821C78.7603 231.671 80.3864 232.872 81.4794 234.424C82.5859 235.975 83.1392 237.804 83.1392 239.909C83.1392 241.434 82.8018 242.824 82.1271 244.079C81.4659 245.334 80.5348 246.386 79.3338 247.237C78.1328 248.073 76.7294 248.653 75.1236 248.977V249.382C76.9048 249.45 78.5241 249.902 79.9815 250.738C81.4389 251.561 82.5994 252.702 83.4631 254.159C84.3267 255.603 84.7585 257.303 84.7585 259.26C84.7585 261.527 84.1648 263.544 82.9773 265.312C81.8033 267.08 80.13 268.47 77.9574 269.482C75.7848 270.494 73.1939 271 70.1847 271H50.6719ZM61.9261 262.013H67.1889C69.0781 262.013 70.495 261.662 71.4396 260.96C72.3842 260.245 72.8565 259.192 72.8565 257.803C72.8565 256.831 72.6339 256.008 72.1886 255.333C71.7433 254.658 71.109 254.146 70.2859 253.795C69.4762 253.444 68.4979 253.268 67.3509 253.268H61.9261V262.013ZM61.9261 246.305H66.5412C67.5263 246.305 68.3967 246.15 69.1523 245.84C69.908 245.529 70.495 245.084 70.9134 244.504C71.3452 243.91 71.5611 243.188 71.5611 242.338C71.5611 241.056 71.1023 240.078 70.1847 239.403C69.267 238.715 68.1065 238.371 66.7031 238.371H61.9261V246.305ZM100 229.545V271H88.7461V229.545H100ZM141.202 229.545V271H131.81L116.831 249.22H116.588V271H105.334V229.545H114.888L129.624 251.244H129.948V229.545H141.202ZM173.447 243.229C173.271 242.513 172.994 241.886 172.617 241.346C172.239 240.793 171.767 240.327 171.2 239.95C170.646 239.558 169.999 239.268 169.257 239.079C168.528 238.877 167.725 238.776 166.848 238.776C164.959 238.776 163.346 239.228 162.01 240.132C160.688 241.036 159.676 242.338 158.974 244.038C158.286 245.739 157.942 247.79 157.942 250.192C157.942 252.621 158.272 254.699 158.933 256.426C159.595 258.153 160.58 259.476 161.889 260.393C163.198 261.311 164.824 261.77 166.767 261.77C168.481 261.77 169.904 261.52 171.038 261.021C172.185 260.522 173.042 259.813 173.608 258.896C174.175 257.978 174.459 256.898 174.459 255.657L176.402 255.859H166.929V247.844H185.308V253.592C185.308 257.371 184.505 260.603 182.899 263.288C181.307 265.96 179.107 268.011 176.301 269.441C173.507 270.858 170.302 271.567 166.686 271.567C162.651 271.567 159.109 270.71 156.059 268.996C153.009 267.282 150.628 264.84 148.914 261.669C147.214 258.498 146.363 254.726 146.363 250.354C146.363 246.926 146.883 243.89 147.922 241.245C148.975 238.6 150.432 236.367 152.294 234.545C154.156 232.71 156.309 231.327 158.751 230.396C161.194 229.451 163.812 228.979 166.605 228.979C169.061 228.979 171.341 229.33 173.447 230.031C175.565 230.719 177.434 231.705 179.053 232.987C180.686 234.255 182.002 235.76 183.001 237.5C183.999 239.241 184.606 241.151 184.822 243.229H173.447ZM230.715 250.273C230.715 254.888 229.817 258.781 228.023 261.952C226.228 265.11 223.806 267.505 220.756 269.138C217.706 270.757 214.306 271.567 210.554 271.567C206.776 271.567 203.362 270.75 200.312 269.118C197.276 267.471 194.86 265.069 193.066 261.912C191.284 258.74 190.394 254.861 190.394 250.273C190.394 245.658 191.284 241.771 193.066 238.614C194.86 235.442 197.276 233.047 200.312 231.428C203.362 229.795 206.776 228.979 210.554 228.979C214.306 228.979 217.706 229.795 220.756 231.428C223.806 233.047 226.228 235.442 228.023 238.614C229.817 241.771 230.715 245.658 230.715 250.273ZM219.137 250.273C219.137 247.79 218.806 245.698 218.145 243.998C217.497 242.284 216.532 240.989 215.25 240.112C213.982 239.221 212.416 238.776 210.554 238.776C208.692 238.776 207.12 239.221 205.838 240.112C204.57 240.989 203.605 242.284 202.943 243.998C202.296 245.698 201.972 247.79 201.972 250.273C201.972 252.756 202.296 254.854 202.943 256.568C203.605 258.268 204.57 259.564 205.838 260.454C207.12 261.331 208.692 261.77 210.554 261.77C212.416 261.77 213.982 261.331 215.25 260.454C216.532 259.564 217.497 258.268 218.145 256.568C218.806 254.854 219.137 252.756 219.137 250.273ZM247.277 271V229.545H265.252C268.409 229.545 271.061 229.971 273.207 230.821C275.366 231.671 276.992 232.872 278.085 234.424C279.191 235.975 279.745 237.804 279.745 239.909C279.745 241.434 279.407 242.824 278.733 244.079C278.071 245.334 277.14 246.386 275.939 247.237C274.738 248.073 273.335 248.653 271.729 248.977V249.382C273.51 249.45 275.13 249.902 276.587 250.738C278.044 251.561 279.205 252.702 280.069 254.159C280.932 255.603 281.364 257.303 281.364 259.26C281.364 261.527 280.77 263.544 279.583 265.312C278.409 267.08 276.735 268.47 274.563 269.482C272.39 270.494 269.799 271 266.79 271H247.277ZM258.532 262.013H263.794C265.684 262.013 267.1 261.662 268.045 260.96C268.99 260.245 269.462 259.192 269.462 257.803C269.462 256.831 269.239 256.008 268.794 255.333C268.349 254.658 267.714 254.146 266.891 253.795C266.082 253.444 265.103 253.268 263.956 253.268H258.532V262.013ZM258.532 246.305H263.147C264.132 246.305 265.002 246.15 265.758 245.84C266.513 245.529 267.1 245.084 267.519 244.504C267.951 243.91 268.167 243.188 268.167 242.338C268.167 241.056 267.708 240.078 266.79 239.403C265.873 238.715 264.712 238.371 263.309 238.371H258.532V246.305ZM285.352 271V229.545H303.245C306.322 229.545 309.014 230.105 311.321 231.225C313.629 232.346 315.424 233.958 316.706 236.063C317.988 238.168 318.629 240.692 318.629 243.634C318.629 246.602 317.967 249.105 316.645 251.143C315.336 253.181 313.494 254.719 311.119 255.758C308.757 256.797 305.998 257.317 302.84 257.317H292.153V248.572H300.573C301.896 248.572 303.022 248.411 303.953 248.087C304.898 247.749 305.62 247.216 306.119 246.488C306.632 245.759 306.888 244.808 306.888 243.634C306.888 242.446 306.632 241.481 306.119 240.739C305.62 239.983 304.898 239.43 303.953 239.079C303.022 238.715 301.896 238.533 300.573 238.533H296.606V271H285.352ZM309.641 251.973L320.005 271H307.779L297.658 251.973H309.641ZM334.194 271H322.049L335.733 229.545H351.116L364.799 271H352.654L343.586 240.962H343.262L334.194 271ZM331.927 254.645H354.76V263.065H331.927V254.645ZM389.524 242.5C389.416 241.151 388.91 240.098 388.006 239.342C387.116 238.587 385.759 238.209 383.938 238.209C382.777 238.209 381.826 238.35 381.084 238.634C380.355 238.904 379.815 239.275 379.464 239.747C379.113 240.219 378.931 240.759 378.918 241.366C378.891 241.866 378.979 242.318 379.181 242.723C379.397 243.114 379.734 243.472 380.193 243.795C380.652 244.106 381.239 244.389 381.954 244.646C382.669 244.902 383.519 245.131 384.504 245.334L387.905 246.062C390.199 246.548 392.162 247.189 393.795 247.985C395.428 248.782 396.764 249.719 397.803 250.799C398.842 251.865 399.605 253.066 400.09 254.402C400.59 255.738 400.846 257.195 400.86 258.774C400.846 261.5 400.165 263.808 398.815 265.697C397.466 267.586 395.536 269.023 393.026 270.008C390.53 270.993 387.527 271.486 384.019 271.486C380.416 271.486 377.271 270.953 374.586 269.887C371.914 268.821 369.836 267.181 368.352 264.968C366.881 262.741 366.139 259.894 366.125 256.426H376.813C376.88 257.695 377.197 258.761 377.764 259.624C378.331 260.488 379.127 261.142 380.153 261.588C381.192 262.033 382.426 262.256 383.857 262.256C385.058 262.256 386.063 262.107 386.873 261.81C387.682 261.513 388.296 261.102 388.715 260.576C389.133 260.049 389.349 259.449 389.362 258.774C389.349 258.14 389.14 257.587 388.735 257.114C388.344 256.629 387.696 256.197 386.792 255.819C385.888 255.428 384.666 255.063 383.128 254.726L378.999 253.835C375.328 253.039 372.434 251.71 370.315 249.848C368.21 247.972 367.164 245.415 367.178 242.176C367.164 239.545 367.866 237.244 369.283 235.274C370.713 233.29 372.69 231.745 375.214 230.638C377.751 229.532 380.659 228.979 383.938 228.979C387.284 228.979 390.179 229.539 392.621 230.659C395.064 231.779 396.946 233.358 398.269 235.395C399.605 237.419 400.279 239.788 400.293 242.5H389.524ZM416.395 229.545V271H405.141V229.545H416.395ZM421.729 271V229.545H432.983V261.932H449.743V271H421.729Z"/>
</mask>
<path d="M50.6719 271V229.545H68.6463C71.804 229.545 74.4556 229.971 76.6012 230.821C78.7603 231.671 80.3864 232.872 81.4794 234.424C82.5859 235.975 83.1392 237.804 83.1392 239.909C83.1392 241.434 82.8018 242.824 82.1271 244.079C81.4659 245.334 80.5348 246.386 79.3338 247.237C78.1328 248.073 76.7294 248.653 75.1236 248.977V249.382C76.9048 249.45 78.5241 249.902 79.9815 250.738C81.4389 251.561 82.5994 252.702 83.4631 254.159C84.3267 255.603 84.7585 257.303 84.7585 259.26C84.7585 261.527 84.1648 263.544 82.9773 265.312C81.8033 267.08 80.13 268.47 77.9574 269.482C75.7848 270.494 73.1939 271 70.1847 271H50.6719ZM61.9261 262.013H67.1889C69.0781 262.013 70.495 261.662 71.4396 260.96C72.3842 260.245 72.8565 259.192 72.8565 257.803C72.8565 256.831 72.6339 256.008 72.1886 255.333C71.7433 254.658 71.109 254.146 70.2859 253.795C69.4762 253.444 68.4979 253.268 67.3509 253.268H61.9261V262.013ZM61.9261 246.305H66.5412C67.5263 246.305 68.3967 246.15 69.1523 245.84C69.908 245.529 70.495 245.084 70.9134 244.504C71.3452 243.91 71.5611 243.188 71.5611 242.338C71.5611 241.056 71.1023 240.078 70.1847 239.403C69.267 238.715 68.1065 238.371 66.7031 238.371H61.9261V246.305ZM100 229.545V271H88.7461V229.545H100ZM141.202 229.545V271H131.81L116.831 249.22H116.588V271H105.334V229.545H114.888L129.624 251.244H129.948V229.545H141.202ZM173.447 243.229C173.271 242.513 172.994 241.886 172.617 241.346C172.239 240.793 171.767 240.327 171.2 239.95C170.646 239.558 169.999 239.268 169.257 239.079C168.528 238.877 167.725 238.776 166.848 238.776C164.959 238.776 163.346 239.228 162.01 240.132C160.688 241.036 159.676 242.338 158.974 244.038C158.286 245.739 157.942 247.79 157.942 250.192C157.942 252.621 158.272 254.699 158.933 256.426C159.595 258.153 160.58 259.476 161.889 260.393C163.198 261.311 164.824 261.77 166.767 261.77C168.481 261.77 169.904 261.52 171.038 261.021C172.185 260.522 173.042 259.813 173.608 258.896C174.175 257.978 174.459 256.898 174.459 255.657L176.402 255.859H166.929V247.844H185.308V253.592C185.308 257.371 184.505 260.603 182.899 263.288C181.307 265.96 179.107 268.011 176.301 269.441C173.507 270.858 170.302 271.567 166.686 271.567C162.651 271.567 159.109 270.71 156.059 268.996C153.009 267.282 150.628 264.84 148.914 261.669C147.214 258.498 146.363 254.726 146.363 250.354C146.363 246.926 146.883 243.89 147.922 241.245C148.975 238.6 150.432 236.367 152.294 234.545C154.156 232.71 156.309 231.327 158.751 230.396C161.194 229.451 163.812 228.979 166.605 228.979C169.061 228.979 171.341 229.33 173.447 230.031C175.565 230.719 177.434 231.705 179.053 232.987C180.686 234.255 182.002 235.76 183.001 237.5C183.999 239.241 184.606 241.151 184.822 243.229H173.447ZM230.715 250.273C230.715 254.888 229.817 258.781 228.023 261.952C226.228 265.11 223.806 267.505 220.756 269.138C217.706 270.757 214.306 271.567 210.554 271.567C206.776 271.567 203.362 270.75 200.312 269.118C197.276 267.471 194.86 265.069 193.066 261.912C191.284 258.74 190.394 254.861 190.394 250.273C190.394 245.658 191.284 241.771 193.066 238.614C194.86 235.442 197.276 233.047 200.312 231.428C203.362 229.795 206.776 228.979 210.554 228.979C214.306 228.979 217.706 229.795 220.756 231.428C223.806 233.047 226.228 235.442 228.023 238.614C229.817 241.771 230.715 245.658 230.715 250.273ZM219.137 250.273C219.137 247.79 218.806 245.698 218.145 243.998C217.497 242.284 216.532 240.989 215.25 240.112C213.982 239.221 212.416 238.776 210.554 238.776C208.692 238.776 207.12 239.221 205.838 240.112C204.57 240.989 203.605 242.284 202.943 243.998C202.296 245.698 201.972 247.79 201.972 250.273C201.972 252.756 202.296 254.854 202.943 256.568C203.605 258.268 204.57 259.564 205.838 260.454C207.12 261.331 208.692 261.77 210.554 261.77C212.416 261.77 213.982 261.331 215.25 260.454C216.532 259.564 217.497 258.268 218.145 256.568C218.806 254.854 219.137 252.756 219.137 250.273ZM247.277 271V229.545H265.252C268.409 229.545 271.061 229.971 273.207 230.821C275.366 231.671 276.992 232.872 278.085 234.424C279.191 235.975 279.745 237.804 279.745 239.909C279.745 241.434 279.407 242.824 278.733 244.079C278.071 245.334 277.14 246.386 275.939 247.237C274.738 248.073 273.335 248.653 271.729 248.977V249.382C273.51 249.45 275.13 249.902 276.587 250.738C278.044 251.561 279.205 252.702 280.069 254.159C280.932 255.603 281.364 257.303 281.364 259.26C281.364 261.527 280.77 263.544 279.583 265.312C278.409 267.08 276.735 268.47 274.563 269.482C272.39 270.494 269.799 271 266.79 271H247.277ZM258.532 262.013H263.794C265.684 262.013 267.1 261.662 268.045 260.96C268.99 260.245 269.462 259.192 269.462 257.803C269.462 256.831 269.239 256.008 268.794 255.333C268.349 254.658 267.714 254.146 266.891 253.795C266.082 253.444 265.103 253.268 263.956 253.268H258.532V262.013ZM258.532 246.305H263.147C264.132 246.305 265.002 246.15 265.758 245.84C266.513 245.529 267.1 245.084 267.519 244.504C267.951 243.91 268.167 243.188 268.167 242.338C268.167 241.056 267.708 240.078 266.79 239.403C265.873 238.715 264.712 238.371 263.309 238.371H258.532V246.305ZM285.352 271V229.545H303.245C306.322 229.545 309.014 230.105 311.321 231.225C313.629 232.346 315.424 233.958 316.706 236.063C317.988 238.168 318.629 240.692 318.629 243.634C318.629 246.602 317.967 249.105 316.645 251.143C315.336 253.181 313.494 254.719 311.119 255.758C308.757 256.797 305.998 257.317 302.84 257.317H292.153V248.572H300.573C301.896 248.572 303.022 248.411 303.953 248.087C304.898 247.749 305.62 247.216 306.119 246.488C306.632 245.759 306.888 244.808 306.888 243.634C306.888 242.446 306.632 241.481 306.119 240.739C305.62 239.983 304.898 239.43 303.953 239.079C303.022 238.715 301.896 238.533 300.573 238.533H296.606V271H285.352ZM309.641 251.973L320.005 271H307.779L297.658 251.973H309.641ZM334.194 271H322.049L335.733 229.545H351.116L364.799 271H352.654L343.586 240.962H343.262L334.194 271ZM331.927 254.645H354.76V263.065H331.927V254.645ZM389.524 242.5C389.416 241.151 388.91 240.098 388.006 239.342C387.116 238.587 385.759 238.209 383.938 238.209C382.777 238.209 381.826 238.35 381.084 238.634C380.355 238.904 379.815 239.275 379.464 239.747C379.113 240.219 378.931 240.759 378.918 241.366C378.891 241.866 378.979 242.318 379.181 242.723C379.397 243.114 379.734 243.472 380.193 243.795C380.652 244.106 381.239 244.389 381.954 244.646C382.669 244.902 383.519 245.131 384.504 245.334L387.905 246.062C390.199 246.548 392.162 247.189 393.795 247.985C395.428 248.782 396.764 249.719 397.803 250.799C398.842 251.865 399.605 253.066 400.09 254.402C400.59 255.738 400.846 257.195 400.86 258.774C400.846 261.5 400.165 263.808 398.815 265.697C397.466 267.586 395.536 269.023 393.026 270.008C390.53 270.993 387.527 271.486 384.019 271.486C380.416 271.486 377.271 270.953 374.586 269.887C371.914 268.821 369.836 267.181 368.352 264.968C366.881 262.741 366.139 259.894 366.125 256.426H376.813C376.88 257.695 377.197 258.761 377.764 259.624C378.331 260.488 379.127 261.142 380.153 261.588C381.192 262.033 382.426 262.256 383.857 262.256C385.058 262.256 386.063 262.107 386.873 261.81C387.682 261.513 388.296 261.102 388.715 260.576C389.133 260.049 389.349 259.449 389.362 258.774C389.349 258.14 389.14 257.587 388.735 257.114C388.344 256.629 387.696 256.197 386.792 255.819C385.888 255.428 384.666 255.063 383.128 254.726L378.999 253.835C375.328 253.039 372.434 251.71 370.315 249.848C368.21 247.972 367.164 245.415 367.178 242.176C367.164 239.545 367.866 237.244 369.283 235.274C370.713 233.29 372.69 231.745 375.214 230.638C377.751 229.532 380.659 228.979 383.938 228.979C387.284 228.979 390.179 229.539 392.621 230.659C395.064 231.779 396.946 233.358 398.269 235.395C399.605 237.419 400.279 239.788 400.293 242.5H389.524ZM416.395 229.545V271H405.141V229.545H416.395ZM421.729 271V229.545H432.983V261.932H449.743V271H421.729Z" fill="black"/>
<path d="M50.6719 271H43.6719V278H50.6719V271ZM50.6719 229.545V222.545H43.6719V229.545H50.6719ZM76.6012 230.821L74.0227 237.328L74.0296 237.331L74.0366 237.334L76.6012 230.821ZM81.4794 234.424L75.7565 238.455L75.7682 238.471L75.7799 238.488L81.4794 234.424ZM82.1271 244.079L75.9617 240.764L75.9478 240.79L75.9341 240.816L82.1271 244.079ZM79.3338 247.237L83.335 252.98L83.3567 252.965L83.3781 252.95L79.3338 247.237ZM75.1236 248.977L73.7397 242.115L68.1236 243.248V248.977H75.1236ZM75.1236 249.382H68.1236V256.122L74.8586 256.377L75.1236 249.382ZM79.9815 250.738L76.4965 256.809L76.5177 256.821L76.539 256.833L79.9815 250.738ZM83.4631 254.159L77.441 257.728L77.4483 257.74L77.4557 257.752L83.4631 254.159ZM82.9773 265.312L77.1666 261.409L77.1563 261.424L77.1461 261.44L82.9773 265.312ZM77.9574 269.482L75.0015 263.137L75.0015 263.137L77.9574 269.482ZM61.9261 262.013H54.9261V269.013H61.9261V262.013ZM71.4396 260.96L75.6139 266.579L75.6396 266.56L75.6651 266.541L71.4396 260.96ZM70.2859 253.795L67.5026 260.218L67.5219 260.226L67.5412 260.234L70.2859 253.795ZM61.9261 253.268V246.268H54.9261V253.268H61.9261ZM61.9261 246.305H54.9261V253.305H61.9261V246.305ZM69.1523 245.84L71.8118 252.315L71.8118 252.315L69.1523 245.84ZM70.9134 244.504L65.2522 240.387L65.2436 240.398L65.2351 240.41L70.9134 244.504ZM70.1847 239.403L65.9847 245.003L66.0112 245.023L66.0379 245.043L70.1847 239.403ZM61.9261 238.371V231.371H54.9261V238.371H61.9261ZM57.6719 271V229.545H43.6719V271H57.6719ZM50.6719 236.545H68.6463V222.545H50.6719V236.545ZM68.6463 236.545C71.2249 236.545 72.9395 236.899 74.0227 237.328L79.1798 224.313C75.9717 223.042 72.383 222.545 68.6463 222.545V236.545ZM74.0366 237.334C75.2083 237.795 75.6108 238.248 75.7565 238.455L87.2023 230.393C85.1619 227.496 82.3123 225.546 79.1658 224.307L74.0366 237.334ZM75.7799 238.488C75.9524 238.73 76.1392 239.101 76.1392 239.909H90.1392C90.1392 236.507 89.2195 233.221 87.1789 230.36L75.7799 238.488ZM76.1392 239.909C76.1392 240.361 76.0503 240.599 75.9617 240.764L88.2926 247.394C89.5534 245.048 90.1392 242.507 90.1392 239.909H76.1392ZM75.9341 240.816C75.8058 241.059 75.6261 241.285 75.2895 241.523L83.3781 252.95C85.4435 251.488 87.126 249.608 88.3201 247.342L75.9341 240.816ZM75.3326 241.493C75.007 241.72 74.5179 241.958 73.7397 242.115L76.5075 255.839C78.9409 255.348 81.2586 254.427 83.335 252.98L75.3326 241.493ZM68.1236 248.977V249.382H82.1236V248.977H68.1236ZM74.8586 256.377C75.5783 256.404 76.0815 256.571 76.4965 256.809L83.4666 244.668C80.9668 243.232 78.2313 242.495 75.3885 242.387L74.8586 256.377ZM76.539 256.833C76.9169 257.047 77.1936 257.31 77.441 257.728L89.4851 250.59C88.0053 248.093 85.9609 246.076 83.4241 244.643L76.539 256.833ZM77.4557 257.752C77.5702 257.944 77.7585 258.36 77.7585 259.26H91.7585C91.7585 256.247 91.0832 253.262 89.4705 250.566L77.4557 257.752ZM77.7585 259.26C77.7585 260.231 77.5278 260.871 77.1666 261.409L88.7879 269.215C90.8018 266.218 91.7585 262.823 91.7585 259.26H77.7585ZM77.1461 261.44C76.7737 262 76.1613 262.596 75.0015 263.137L80.9133 275.827C84.0987 274.343 86.8329 272.16 88.8085 269.185L77.1461 261.44ZM75.0015 263.137C73.9597 263.622 72.426 264 70.1847 264V278C73.9618 278 77.6099 277.366 80.9133 275.827L75.0015 263.137ZM70.1847 264H50.6719V278H70.1847V264ZM61.9261 269.013H67.1889V255.013H61.9261V269.013ZM67.1889 269.013C69.7408 269.013 72.9276 268.575 75.6139 266.579L67.2654 255.341C67.6933 255.023 68.0039 254.95 67.986 254.955C67.9813 254.956 67.9166 254.971 67.7786 254.986C67.6411 255.001 67.4471 255.013 67.1889 255.013V269.013ZM75.6651 266.541C78.6731 264.264 79.8565 260.956 79.8565 257.803H65.8565C65.8565 257.708 65.8735 257.309 66.1158 256.769C66.3741 256.193 66.776 255.711 67.2142 255.379L75.6651 266.541ZM79.8565 257.803C79.8565 255.74 79.3722 253.51 78.0308 251.477L66.3463 259.189C65.8955 258.506 65.8565 257.922 65.8565 257.803H79.8565ZM78.0308 251.477C76.749 249.535 74.9771 248.185 73.0306 247.355L67.5412 260.234C67.4145 260.18 67.2104 260.074 66.9779 259.886C66.7409 259.694 66.5232 259.457 66.3463 259.189L78.0308 251.477ZM73.0691 247.372C71.16 246.545 69.1809 246.268 67.3509 246.268V260.268C67.5718 260.268 67.6845 260.286 67.7094 260.29C67.7321 260.294 67.6517 260.282 67.5026 260.218L73.0691 247.372ZM67.3509 246.268H61.9261V260.268H67.3509V246.268ZM54.9261 253.268V262.013H68.9261V253.268H54.9261ZM61.9261 253.305H66.5412V239.305H61.9261V253.305ZM66.5412 253.305C68.2551 253.305 70.0578 253.035 71.8118 252.315L66.4929 239.365C66.6118 239.316 66.6888 239.3 66.7041 239.298C66.7174 239.295 66.6678 239.305 66.5412 239.305V253.305ZM71.8118 252.315C73.6006 251.58 75.3051 250.382 76.5916 248.598L65.2351 240.41C65.685 239.786 66.2154 239.479 66.4929 239.365L71.8118 252.315ZM76.5745 248.621C78.0088 246.649 78.5611 244.426 78.5611 242.338H64.5611C64.5611 242.17 64.5829 241.879 64.6926 241.511C64.8053 241.135 64.9906 240.746 65.2522 240.387L76.5745 248.621ZM78.5611 242.338C78.5611 239.151 77.2872 235.937 74.3314 233.763L66.0379 245.043C65.6078 244.726 65.1731 244.242 64.8793 243.615C64.5987 243.017 64.5611 242.535 64.5611 242.338H78.5611ZM74.3847 233.803C72.005 232.018 69.2751 231.371 66.7031 231.371V245.371C66.8358 245.371 66.7951 245.387 66.6361 245.34C66.4641 245.289 66.2269 245.185 65.9847 245.003L74.3847 233.803ZM66.7031 231.371H61.9261V245.371H66.7031V231.371ZM54.9261 238.371V246.305H68.9261V238.371H54.9261ZM100 229.545H107V222.545H100V229.545ZM100 271V278H107V271H100ZM88.7461 271H81.7461V278H88.7461V271ZM88.7461 229.545V222.545H81.7461V229.545H88.7461ZM93.0004 229.545V271H107V229.545H93.0004ZM100 264H88.7461V278H100V264ZM95.7461 271V229.545H81.7461V271H95.7461ZM88.7461 236.545H100V222.545H88.7461V236.545ZM141.202 229.545H148.202V222.545H141.202V229.545ZM141.202 271V278H148.202V271H141.202ZM131.81 271L126.042 274.967L128.128 278H131.81V271ZM116.831 249.22L122.599 245.254L120.513 242.22H116.831V249.22ZM116.588 249.22V242.22H109.588V249.22H116.588ZM116.588 271V278H123.588V271H116.588ZM105.334 271H98.334V278H105.334V271ZM105.334 229.545V222.545H98.334V229.545H105.334ZM114.888 229.545L120.679 225.613L118.596 222.545H114.888V229.545ZM129.624 251.244L123.833 255.177L125.916 258.244H129.624V251.244ZM129.948 251.244V258.244H136.948V251.244H129.948ZM129.948 229.545V222.545H122.948V229.545H129.948ZM134.202 229.545V271H148.202V229.545H134.202ZM141.202 264H131.81V278H141.202V264ZM137.578 267.033L122.599 245.254L111.063 253.187L126.042 274.967L137.578 267.033ZM116.831 242.22H116.588V256.22H116.831V242.22ZM109.588 249.22V271H123.588V249.22H109.588ZM116.588 264H105.334V278H116.588V264ZM112.334 271V229.545H98.334V271H112.334ZM105.334 236.545H114.888V222.545H105.334V236.545ZM109.097 233.478L123.833 255.177L135.415 247.312L120.679 225.613L109.097 233.478ZM129.624 258.244H129.948V244.244H129.624V258.244ZM136.948 251.244V229.545H122.948V251.244H136.948ZM129.948 236.545H141.202V222.545H129.948V236.545ZM173.447 243.229L166.648 244.896L167.956 250.229H173.447V243.229ZM172.617 241.346L166.836 245.294L166.859 245.327L166.882 245.36L172.617 241.346ZM171.2 239.95L167.157 245.664L167.236 245.72L167.317 245.774L171.2 239.95ZM169.257 239.079L167.383 245.824L167.456 245.844L167.53 245.863L169.257 239.079ZM162.01 240.132L158.087 234.335L158.073 234.344L158.059 234.353L162.01 240.132ZM158.974 244.038L152.503 241.368L152.494 241.39L152.485 241.412L158.974 244.038ZM158.933 256.426L152.396 258.929L152.396 258.929L158.933 256.426ZM161.889 260.393L157.87 266.125L157.87 266.125L161.889 260.393ZM171.038 261.021L168.244 254.603L168.23 254.609L168.216 254.615L171.038 261.021ZM173.608 258.896L167.653 255.217L167.653 255.217L173.608 258.896ZM174.459 255.657L175.184 248.695L167.459 247.89V255.657H174.459ZM176.402 255.859V262.859L177.127 248.897L176.402 255.859ZM166.929 255.859H159.929V262.859H166.929V255.859ZM166.929 247.844V240.844H159.929V247.844H166.929ZM185.308 247.844H192.308V240.844H185.308V247.844ZM182.899 263.288L176.892 259.695L176.886 259.704L182.899 263.288ZM176.301 269.441L179.467 275.684L179.479 275.678L176.301 269.441ZM156.059 268.996L152.63 275.099L152.63 275.099L156.059 268.996ZM148.914 261.669L142.745 264.976L142.75 264.987L142.756 264.997L148.914 261.669ZM147.922 241.245L141.418 238.657L141.412 238.671L141.407 238.685L147.922 241.245ZM152.294 234.545L157.189 239.549L157.199 239.54L157.208 239.531L152.294 234.545ZM158.751 230.396L161.245 236.936L161.26 236.93L161.276 236.924L158.751 230.396ZM173.447 230.031L171.233 236.672L171.258 236.681L171.284 236.689L173.447 230.031ZM179.053 232.987L174.709 238.475L174.734 238.495L174.759 238.514L179.053 232.987ZM183.001 237.5L189.072 234.017L189.072 234.017L183.001 237.5ZM184.822 243.229V250.229H192.587L191.785 242.505L184.822 243.229ZM180.245 241.561C179.887 240.103 179.281 238.66 178.351 237.332L166.882 245.36C166.708 245.112 166.655 244.924 166.648 244.896L180.245 241.561ZM178.397 237.398C177.504 236.091 176.384 234.993 175.083 234.125L167.317 245.774C167.149 245.662 166.973 245.495 166.836 245.294L178.397 237.398ZM175.242 234.235C173.904 233.288 172.449 232.669 170.983 232.296L167.53 245.863C167.548 245.868 167.389 245.828 167.157 245.664L175.242 234.235ZM171.13 232.335C169.703 231.938 168.26 231.776 166.848 231.776V245.776C167.19 245.776 167.353 245.815 167.383 245.824L171.13 232.335ZM166.848 231.776C163.805 231.776 160.769 232.52 158.087 234.335L165.933 245.929C165.955 245.914 166.001 245.886 166.111 245.855C166.229 245.822 166.462 245.776 166.848 245.776V231.776ZM158.059 234.353C155.453 236.135 153.646 238.6 152.503 241.368L165.445 246.709C165.706 246.076 165.923 245.936 165.961 245.91L158.059 234.353ZM152.485 241.412C151.372 244.161 150.942 247.154 150.942 250.192H164.942C164.942 248.425 165.199 247.316 165.463 246.665L152.485 241.412ZM150.942 250.192C150.942 253.223 151.35 256.196 152.396 258.929L165.471 253.924C165.195 253.202 164.942 252.019 164.942 250.192H150.942ZM152.396 258.929C153.476 261.749 155.247 264.286 157.87 266.125L165.907 254.662C165.883 254.645 165.843 254.614 165.782 254.532C165.716 254.443 165.599 254.259 165.471 253.924L152.396 258.929ZM157.87 266.125C160.591 268.032 163.701 268.77 166.767 268.77V254.77C166.344 254.77 166.101 254.72 165.991 254.689C165.892 254.661 165.881 254.644 165.907 254.662L157.87 266.125ZM166.767 268.77C169.103 268.77 171.565 268.438 173.86 267.427L168.216 254.615C168.243 254.603 167.858 254.77 166.767 254.77V268.77ZM173.832 267.439C176.072 266.464 178.133 264.892 179.564 262.574L167.653 255.217C167.783 255.006 167.939 254.838 168.08 254.72C168.215 254.609 168.291 254.582 168.244 254.603L173.832 267.439ZM179.564 262.574C180.912 260.392 181.459 257.998 181.459 255.657H167.459C167.459 255.744 167.449 255.722 167.475 255.62C167.504 255.513 167.559 255.369 167.653 255.217L179.564 262.574ZM173.733 262.619L175.677 262.822L177.127 248.897L175.184 248.695L173.733 262.619ZM176.402 248.859H166.929V262.859H176.402V248.859ZM173.929 255.859V247.844H159.929V255.859H173.929ZM166.929 254.844H185.308V240.844H166.929V254.844ZM178.308 247.844V253.592H192.308V247.844H178.308ZM178.308 253.592C178.308 256.369 177.725 258.302 176.892 259.695L188.907 266.881C191.285 262.904 192.308 258.373 192.308 253.592H178.308ZM176.886 259.704C175.979 261.227 174.769 262.365 173.122 263.205L179.479 275.678C183.446 273.657 186.635 270.693 188.912 266.872L176.886 259.704ZM173.134 263.199C171.464 264.046 169.373 264.567 166.686 264.567V278.567C171.232 278.567 175.551 277.671 179.467 275.684L173.134 263.199ZM166.686 264.567C163.666 264.567 161.34 263.934 159.488 262.894L152.63 275.099C156.878 277.486 161.636 278.567 166.686 278.567V264.567ZM159.488 262.894C157.629 261.849 156.177 260.385 155.072 258.341L142.756 264.997C145.078 269.295 148.39 272.716 152.63 275.099L159.488 262.894ZM155.083 258.361C154.034 256.404 153.363 253.818 153.363 250.354H139.363C139.363 255.634 140.394 260.591 142.745 264.976L155.083 258.361ZM153.363 250.354C153.363 247.626 153.777 245.485 154.437 243.805L141.407 238.685C139.989 242.295 139.363 246.226 139.363 250.354H153.363ZM154.426 243.833C155.151 242.012 156.089 240.625 157.189 239.549L147.399 229.541C144.775 232.108 142.798 235.188 141.418 238.657L154.426 243.833ZM157.208 239.531C158.38 238.376 159.708 237.522 161.245 236.936L156.258 223.855C152.909 225.131 149.933 227.044 147.381 229.559L157.208 239.531ZM161.276 236.924C162.861 236.312 164.617 235.979 166.605 235.979V221.979C163.006 221.979 159.527 222.59 156.226 223.867L161.276 236.924ZM166.605 235.979C168.388 235.979 169.914 236.232 171.233 236.672L175.66 223.39C172.769 222.427 169.734 221.979 166.605 221.979V235.979ZM171.284 236.689C172.674 237.14 173.791 237.748 174.709 238.475L183.398 227.498C181.077 225.661 178.457 224.299 175.609 223.374L171.284 236.689ZM174.759 238.514C175.694 239.241 176.398 240.058 176.929 240.983L189.072 234.017C187.606 231.462 185.678 229.269 183.348 227.459L174.759 238.514ZM176.929 240.983C177.421 241.842 177.741 242.805 177.86 243.952L191.785 242.505C191.472 239.496 190.577 236.641 189.072 234.017L176.929 240.983ZM184.822 236.229H173.447V250.229H184.822V236.229ZM228.023 261.952L234.108 265.411L234.115 265.4L228.023 261.952ZM220.756 269.138L224.039 275.32L224.049 275.315L224.06 275.309L220.756 269.138ZM200.312 269.118L196.975 275.271L196.992 275.28L197.008 275.289L200.312 269.118ZM193.066 261.912L186.962 265.34L186.971 265.355L186.98 265.371L193.066 261.912ZM193.066 238.614L186.974 235.166L186.969 235.174L193.066 238.614ZM200.312 231.428L203.606 237.604L203.616 237.599L200.312 231.428ZM220.756 231.428L217.452 237.599L217.463 237.605L217.473 237.61L220.756 231.428ZM228.023 238.614L221.931 242.061L221.937 242.073L228.023 238.614ZM218.145 243.998L211.597 246.473L211.609 246.504L211.621 246.535L218.145 243.998ZM215.25 240.112L211.228 245.84L211.263 245.865L211.297 245.889L215.25 240.112ZM205.838 240.112L209.819 245.869L209.826 245.865L209.832 245.86L205.838 240.112ZM202.943 243.998L196.413 241.478L196.407 241.492L196.402 241.506L202.943 243.998ZM202.943 256.568L196.396 259.043L196.407 259.074L196.419 259.105L202.943 256.568ZM205.838 260.454L201.816 266.183L201.85 266.207L201.885 266.231L205.838 260.454ZM215.25 260.454L219.232 266.212L219.238 266.207L219.244 266.203L215.25 260.454ZM218.145 256.568L211.614 254.048L211.609 254.062L211.603 254.076L218.145 256.568ZM223.715 250.273C223.715 253.996 222.992 256.629 221.931 258.504L234.115 265.4C236.643 260.932 237.715 255.78 237.715 250.273H223.715ZM221.937 258.493C220.761 260.563 219.278 261.989 217.452 262.967L224.06 275.309C228.334 273.021 231.695 269.657 234.108 265.411L221.937 258.493ZM217.473 262.955C215.52 263.992 213.262 264.567 210.554 264.567V278.567C215.349 278.567 219.892 277.522 224.039 275.32L217.473 262.955ZM210.554 264.567C207.82 264.567 205.558 263.986 203.616 262.946L197.008 275.289C201.166 277.515 205.732 278.567 210.554 278.567V264.567ZM203.649 262.964C201.823 261.974 200.334 260.534 199.151 258.453L186.98 265.371C189.386 269.604 192.728 272.968 196.975 275.271L203.649 262.964ZM199.169 258.483C198.11 256.599 197.394 253.969 197.394 250.273H183.394C183.394 255.753 184.459 260.882 186.962 265.34L199.169 258.483ZM197.394 250.273C197.394 246.54 198.114 243.912 199.162 242.053L186.969 235.174C184.455 239.631 183.394 244.775 183.394 250.273H197.394ZM199.158 242.061C200.338 239.976 201.813 238.561 203.606 237.604L197.018 225.251C192.739 227.534 189.383 230.909 186.974 235.166L199.158 242.061ZM203.616 237.599C205.558 236.56 207.82 235.979 210.554 235.979V221.979C205.732 221.979 201.166 223.031 197.008 225.257L203.616 237.599ZM210.554 235.979C213.253 235.979 215.503 236.556 217.452 237.599L224.06 225.257C219.91 223.035 215.359 221.979 210.554 221.979V235.979ZM217.473 237.61C219.279 238.569 220.755 239.984 221.931 242.061L234.115 235.166C231.701 230.901 228.333 227.525 224.039 225.245L217.473 237.61ZM221.937 242.073C222.991 243.927 223.715 246.548 223.715 250.273H237.715C237.715 244.767 236.644 239.615 234.108 235.155L221.937 242.073ZM226.137 250.273C226.137 247.215 225.736 244.204 224.669 241.461L211.621 246.535C211.876 247.192 212.137 248.365 212.137 250.273H226.137ZM224.693 241.523C223.632 238.716 221.868 236.158 219.203 234.334L211.297 245.889C211.275 245.873 211.282 245.87 211.321 245.922C211.366 245.983 211.473 246.145 211.597 246.473L224.693 241.523ZM219.273 234.383C216.605 232.51 213.56 231.776 210.554 231.776V245.776C210.929 245.776 211.132 245.82 211.21 245.842C211.277 245.861 211.266 245.867 211.228 245.84L219.273 234.383ZM210.554 231.776C207.546 231.776 204.51 232.51 201.844 234.363L209.832 245.86C209.808 245.877 209.81 245.866 209.886 245.845C209.972 245.82 210.18 245.776 210.554 245.776V231.776ZM201.857 234.354C199.226 236.173 197.481 238.709 196.413 241.478L209.474 246.518C209.607 246.174 209.722 245.996 209.777 245.922C209.826 245.856 209.841 245.854 209.819 245.869L201.857 234.354ZM196.402 241.506C195.363 244.234 194.972 247.228 194.972 250.273H208.972C208.972 248.351 209.229 247.162 209.485 246.49L196.402 241.506ZM194.972 250.273C194.972 253.32 195.363 256.312 196.396 259.043L209.491 254.093C209.228 253.396 208.972 252.191 208.972 250.273H194.972ZM196.419 259.105C197.491 261.86 199.228 264.366 201.816 266.183L209.86 254.725C209.856 254.723 209.85 254.718 209.84 254.708C209.83 254.698 209.808 254.675 209.777 254.633C209.715 254.551 209.599 254.369 209.467 254.031L196.419 259.105ZM201.885 266.231C204.547 268.052 207.567 268.77 210.554 268.77V254.77C210.171 254.77 209.954 254.725 209.859 254.698C209.775 254.675 209.767 254.661 209.791 254.677L201.885 266.231ZM210.554 268.77C213.539 268.77 216.568 268.053 219.232 266.212L211.269 254.697C211.307 254.67 211.313 254.679 211.236 254.701C211.15 254.725 210.938 254.77 210.554 254.77V268.77ZM219.244 266.203C221.866 264.381 223.622 261.853 224.686 259.06L211.603 254.076C211.481 254.398 211.373 254.564 211.321 254.633C211.295 254.669 211.278 254.686 211.271 254.693C211.264 254.7 211.26 254.703 211.256 254.705L219.244 266.203ZM224.676 259.088C225.735 256.342 226.137 253.333 226.137 250.273H212.137C212.137 252.178 211.877 253.366 211.614 254.048L224.676 259.088ZM247.277 271H240.277V278H247.277V271ZM247.277 229.545V222.545H240.277V229.545H247.277ZM273.207 230.821L270.628 237.328L270.635 237.331L270.642 237.334L273.207 230.821ZM278.085 234.424L272.362 238.455L272.374 238.471L272.385 238.488L278.085 234.424ZM278.733 244.079L272.567 240.764L272.553 240.79L272.54 240.816L278.733 244.079ZM275.939 247.237L279.941 252.98L279.962 252.965L279.984 252.95L275.939 247.237ZM271.729 248.977L270.345 242.115L264.729 243.248V248.977H271.729ZM271.729 249.382H264.729V256.122L271.464 256.377L271.729 249.382ZM276.587 250.738L273.102 256.809L273.123 256.821L273.144 256.833L276.587 250.738ZM280.069 254.159L274.047 257.728L274.054 257.74L274.061 257.752L280.069 254.159ZM279.583 265.312L273.772 261.409L273.762 261.424L273.752 261.44L279.583 265.312ZM274.563 269.482L271.607 263.137L271.607 263.137L274.563 269.482ZM258.532 262.013H251.532V269.013H258.532V262.013ZM268.045 260.96L272.219 266.579L272.245 266.56L272.271 266.541L268.045 260.96ZM266.891 253.795L264.108 260.218L264.127 260.226L264.147 260.234L266.891 253.795ZM258.532 253.268V246.268H251.532V253.268H258.532ZM258.532 246.305H251.532V253.305H258.532V246.305ZM265.758 245.84L268.417 252.315L268.417 252.315L265.758 245.84ZM267.519 244.504L261.858 240.387L261.849 240.398L261.841 240.41L267.519 244.504ZM266.79 239.403L262.59 245.003L262.617 245.023L262.643 245.043L266.79 239.403ZM258.532 238.371V231.371H251.532V238.371H258.532ZM254.277 271V229.545H240.277V271H254.277ZM247.277 236.545H265.252V222.545H247.277V236.545ZM265.252 236.545C267.83 236.545 269.545 236.899 270.628 237.328L275.785 224.313C272.577 223.042 268.989 222.545 265.252 222.545V236.545ZM270.642 237.334C271.814 237.795 272.216 238.248 272.362 238.455L283.808 230.393C281.767 227.496 278.918 225.546 275.771 224.307L270.642 237.334ZM272.385 238.488C272.558 238.73 272.745 239.101 272.745 239.909H286.745C286.745 236.507 285.825 233.221 283.784 230.36L272.385 238.488ZM272.745 239.909C272.745 240.361 272.656 240.599 272.567 240.764L284.898 247.394C286.159 245.048 286.745 242.507 286.745 239.909H272.745ZM272.54 240.816C272.411 241.059 272.232 241.285 271.895 241.523L279.984 252.95C282.049 251.488 283.731 249.608 284.926 247.342L272.54 240.816ZM271.938 241.493C271.612 241.72 271.123 241.958 270.345 242.115L273.113 255.839C275.546 255.348 277.864 254.427 279.941 252.98L271.938 241.493ZM264.729 248.977V249.382H278.729V248.977H264.729ZM271.464 256.377C272.184 256.404 272.687 256.571 273.102 256.809L280.072 244.668C277.572 243.232 274.837 242.495 271.994 242.387L271.464 256.377ZM273.144 256.833C273.522 257.047 273.799 257.31 274.047 257.728L286.091 250.59C284.611 248.093 282.566 246.076 280.03 244.643L273.144 256.833ZM274.061 257.752C274.176 257.944 274.364 258.36 274.364 259.26H288.364C288.364 256.247 287.689 253.262 286.076 250.566L274.061 257.752ZM274.364 259.26C274.364 260.231 274.133 260.871 273.772 261.409L285.393 269.215C287.407 266.218 288.364 262.823 288.364 259.26H274.364ZM273.752 261.44C273.379 262 272.767 262.596 271.607 263.137L277.519 275.827C280.704 274.343 283.438 272.16 285.414 269.185L273.752 261.44ZM271.607 263.137C270.565 263.622 269.032 264 266.79 264V278C270.567 278 274.215 277.366 277.519 275.827L271.607 263.137ZM266.79 264H247.277V278H266.79V264ZM258.532 269.013H263.794V255.013H258.532V269.013ZM263.794 269.013C266.346 269.013 269.533 268.575 272.219 266.579L263.871 255.341C264.299 255.023 264.609 254.95 264.591 254.955C264.587 254.956 264.522 254.971 264.384 254.986C264.247 255.001 264.053 255.013 263.794 255.013V269.013ZM272.271 266.541C275.279 264.264 276.462 260.956 276.462 257.803H262.462C262.462 257.708 262.479 257.309 262.721 256.769C262.98 256.193 263.381 255.711 263.82 255.379L272.271 266.541ZM276.462 257.803C276.462 255.74 275.978 253.51 274.636 251.477L262.952 259.189C262.501 258.506 262.462 257.922 262.462 257.803H276.462ZM274.636 251.477C273.354 249.535 271.583 248.185 269.636 247.355L264.147 260.234C264.02 260.18 263.816 260.074 263.583 259.886C263.346 259.694 263.129 259.457 262.952 259.189L274.636 251.477ZM269.675 247.372C267.765 246.545 265.786 246.268 263.956 246.268V260.268C264.177 260.268 264.29 260.286 264.315 260.29C264.338 260.294 264.257 260.282 264.108 260.218L269.675 247.372ZM263.956 246.268H258.532V260.268H263.956V246.268ZM251.532 253.268V262.013H265.532V253.268H251.532ZM258.532 253.305H263.147V239.305H258.532V253.305ZM263.147 253.305C264.861 253.305 266.663 253.035 268.417 252.315L263.098 239.365C263.217 239.316 263.294 239.3 263.31 239.298C263.323 239.295 263.273 239.305 263.147 239.305V253.305ZM268.417 252.315C270.206 251.58 271.911 250.382 273.197 248.598L261.841 240.41C262.29 239.786 262.821 239.479 263.098 239.365L268.417 252.315ZM273.18 248.621C274.614 246.649 275.167 244.426 275.167 242.338H261.167C261.167 242.17 261.188 241.879 261.298 241.511C261.411 241.135 261.596 240.746 261.858 240.387L273.18 248.621ZM275.167 242.338C275.167 239.151 273.893 235.937 270.937 233.763L262.643 245.043C262.213 244.726 261.779 244.242 261.485 243.615C261.204 243.017 261.167 242.535 261.167 242.338H275.167ZM270.99 233.803C268.61 232.018 265.881 231.371 263.309 231.371V245.371C263.441 245.371 263.401 245.387 263.242 245.34C263.07 245.289 262.832 245.185 262.59 245.003L270.99 233.803ZM263.309 231.371H258.532V245.371H263.309V231.371ZM251.532 238.371V246.305H265.532V238.371H251.532ZM285.352 271H278.352V278H285.352V271ZM285.352 229.545V222.545H278.352V229.545H285.352ZM311.321 231.225L308.265 237.523L308.265 237.523L311.321 231.225ZM316.706 236.063L322.684 232.422L322.684 232.422L316.706 236.063ZM316.645 251.143L310.773 247.332L310.764 247.346L310.755 247.36L316.645 251.143ZM311.119 255.758L308.313 249.345L308.307 249.348L308.3 249.351L311.119 255.758ZM292.153 257.317H285.153V264.317H292.153V257.317ZM292.153 248.572V241.572H285.153V248.572H292.153ZM303.953 248.087L306.253 254.698L306.281 254.689L306.308 254.679L303.953 248.087ZM306.119 246.488L300.395 242.459L300.37 242.495L300.345 242.531L306.119 246.488ZM306.119 240.739L300.279 244.598L300.319 244.658L300.36 244.718L306.119 240.739ZM303.953 239.079L301.403 245.598L301.459 245.62L301.516 245.641L303.953 239.079ZM296.606 238.533V231.533H289.606V238.533H296.606ZM296.606 271V278H303.606V271H296.606ZM309.641 251.973L315.789 248.625L313.8 244.973H309.641V251.973ZM320.005 271V278H331.789L326.152 267.652L320.005 271ZM307.779 271L301.599 274.287L303.574 278H307.779V271ZM297.658 251.973V244.973H286.006L291.478 255.26L297.658 251.973ZM292.352 271V229.545H278.352V271H292.352ZM285.352 236.545H303.245V222.545H285.352V236.545ZM303.245 236.545C305.472 236.545 307.081 236.948 308.265 237.523L314.378 224.928C310.946 223.262 307.172 222.545 303.245 222.545V236.545ZM308.265 237.523C309.415 238.081 310.173 238.795 310.727 239.704L322.684 232.422C320.674 229.121 317.843 226.61 314.378 224.928L308.265 237.523ZM310.727 239.704C311.222 240.516 311.629 241.726 311.629 243.634H325.629C325.629 239.658 324.753 235.82 322.684 232.422L310.727 239.704ZM311.629 243.634C311.629 245.552 311.21 246.659 310.773 247.332L322.517 254.954C324.724 251.552 325.629 247.653 325.629 243.634H311.629ZM310.755 247.36C310.246 248.153 309.517 248.818 308.313 249.345L313.925 262.171C317.471 260.62 320.426 258.209 322.534 254.926L310.755 247.36ZM308.3 249.351C307.002 249.922 305.239 250.317 302.84 250.317V264.317C306.756 264.317 310.513 263.673 313.938 262.165L308.3 249.351ZM302.84 250.317H292.153V264.317H302.84V250.317ZM299.153 257.317V248.572H285.153V257.317H299.153ZM292.153 255.572H300.573V241.572H292.153V255.572ZM300.573 255.572C302.428 255.572 304.378 255.35 306.253 254.698L301.654 241.475C301.666 241.471 301.363 241.572 300.573 241.572V255.572ZM306.308 254.679C308.446 253.915 310.45 252.551 311.894 250.444L300.345 242.531C300.544 242.24 300.788 241.993 301.046 241.802C301.296 241.618 301.501 241.529 301.599 241.494L306.308 254.679ZM311.844 250.516C313.414 248.285 313.888 245.796 313.888 243.634H299.888C299.888 243.819 299.85 243.233 300.395 242.459L311.844 250.516ZM313.888 243.634C313.888 241.469 313.42 238.991 311.878 236.76L300.36 244.718C299.845 243.972 299.888 243.423 299.888 243.634H313.888ZM311.96 236.88C310.55 234.747 308.563 233.324 306.391 232.517L301.516 245.641C301.405 245.6 301.194 245.504 300.945 245.313C300.691 245.118 300.461 244.873 300.279 244.598L311.96 236.88ZM306.504 232.56C304.545 231.794 302.502 231.533 300.573 231.533V245.533C301.289 245.533 301.5 245.636 301.403 245.598L306.504 232.56ZM300.573 231.533H296.606V245.533H300.573V231.533ZM289.606 238.533V271H303.606V238.533H289.606ZM296.606 264H285.352V278H296.606V264ZM303.494 255.321L313.858 274.348L326.152 267.652L315.789 248.625L303.494 255.321ZM320.005 264H307.779V278H320.005V264ZM313.959 267.713L303.838 248.686L291.478 255.26L301.599 274.287L313.959 267.713ZM297.658 258.973H309.641V244.973H297.658V258.973ZM334.194 271V278H339.393L340.896 273.023L334.194 271ZM322.049 271L315.402 268.806L312.367 278H322.049V271ZM335.733 229.545V222.545H330.672L329.085 227.351L335.733 229.545ZM351.116 229.545L357.763 227.351L356.177 222.545H351.116V229.545ZM364.799 271V278H374.481L371.447 268.806L364.799 271ZM352.654 271L345.953 273.023L347.456 278H352.654V271ZM343.586 240.962L350.288 238.939L348.785 233.962H343.586V240.962ZM343.262 240.962V233.962H338.064L336.561 238.939L343.262 240.962ZM331.927 254.645V247.645H324.927V254.645H331.927ZM354.76 254.645H361.76V247.645H354.76V254.645ZM354.76 263.065V270.065H361.76V263.065H354.76ZM331.927 263.065H324.927V270.065H331.927V263.065ZM334.194 264H322.049V278H334.194V264ZM328.697 273.194L342.38 231.74L329.085 227.351L315.402 268.806L328.697 273.194ZM335.733 236.545H351.116V222.545H335.733V236.545ZM344.469 231.74L358.152 273.194L371.447 268.806L357.763 227.351L344.469 231.74ZM364.799 264H352.654V278H364.799V264ZM359.356 268.977L350.288 238.939L336.885 242.985L345.953 273.023L359.356 268.977ZM343.586 233.962H343.262V247.962H343.586V233.962ZM336.561 238.939L327.493 268.977L340.896 273.023L349.964 242.985L336.561 238.939ZM331.927 261.645H354.76V247.645H331.927V261.645ZM347.76 254.645V263.065H361.76V254.645H347.76ZM354.76 256.065H331.927V270.065H354.76V256.065ZM338.927 263.065V254.645H324.927V263.065H338.927ZM389.524 242.5L382.547 243.058L383.062 249.5H389.524V242.5ZM388.006 239.342L383.477 244.68L383.497 244.697L383.517 244.713L388.006 239.342ZM381.084 238.634L383.515 245.198L383.548 245.186L383.581 245.173L381.084 238.634ZM379.464 239.747L373.845 235.573L373.845 235.573L379.464 239.747ZM378.918 241.366L385.908 241.744L385.914 241.633L385.916 241.522L378.918 241.366ZM379.181 242.723L372.92 245.853L372.983 245.98L373.052 246.104L379.181 242.723ZM380.193 243.795L376.156 249.514L376.213 249.554L376.271 249.593L380.193 243.795ZM384.504 245.334L385.971 238.489L385.942 238.483L385.913 238.477L384.504 245.334ZM387.905 246.062L386.438 252.907L386.447 252.909L386.455 252.911L387.905 246.062ZM393.795 247.985L390.727 254.277L393.795 247.985ZM397.803 250.799L392.76 255.653L392.775 255.669L392.79 255.685L397.803 250.799ZM400.09 254.402L393.512 256.794L393.522 256.823L393.533 256.853L400.09 254.402ZM400.86 258.774L407.859 258.809L407.86 258.762L407.859 258.714L400.86 258.774ZM398.815 265.697L404.511 269.765L404.511 269.765L398.815 265.697ZM393.026 270.008L390.469 263.492L390.457 263.497L393.026 270.008ZM374.586 269.887L371.992 276.388L372.003 276.393L374.586 269.887ZM368.352 264.968L362.511 268.826L362.525 268.847L362.538 268.867L368.352 264.968ZM366.125 256.426V249.426H359.098L359.125 256.453L366.125 256.426ZM376.813 256.426L383.803 256.054L383.45 249.426H376.813V256.426ZM377.764 259.624L371.912 263.465L371.912 263.465L377.764 259.624ZM380.153 261.588L377.365 268.009L377.38 268.015L377.395 268.022L380.153 261.588ZM386.873 261.81L389.282 268.383L389.282 268.383L386.873 261.81ZM388.715 260.576L394.194 264.931L394.194 264.931L388.715 260.576ZM389.362 258.774L396.361 258.914L396.364 258.77L396.361 258.625L389.362 258.774ZM388.735 257.114L383.284 261.506L383.351 261.589L383.42 261.67L388.735 257.114ZM386.792 255.819L384.011 262.243L384.052 262.261L384.093 262.278L386.792 255.819ZM383.128 254.726L384.627 247.888L384.616 247.886L384.604 247.883L383.128 254.726ZM378.999 253.835L377.515 260.676L377.523 260.678L378.999 253.835ZM370.315 249.848L365.658 255.074L365.676 255.09L365.694 255.105L370.315 249.848ZM367.178 242.176L374.178 242.205L374.178 242.173L374.178 242.14L367.178 242.176ZM369.283 235.274L363.605 231.18L363.6 231.187L369.283 235.274ZM375.214 230.638L372.415 224.222L372.402 224.228L375.214 230.638ZM392.621 230.659L389.703 237.022L389.703 237.022L392.621 230.659ZM398.269 235.395L392.397 239.206L392.412 239.229L392.426 239.251L398.269 235.395ZM400.293 242.5V249.5H407.328L407.293 242.465L400.293 242.5ZM396.502 241.942C396.268 239.022 395.059 236.114 392.495 233.971L383.517 244.713C383.21 244.457 382.939 244.114 382.755 243.732C382.58 243.368 382.551 243.108 382.547 243.058L396.502 241.942ZM392.535 234.005C389.839 231.717 386.536 231.209 383.938 231.209V245.209C384.389 245.209 384.525 245.258 384.442 245.235C384.343 245.208 383.945 245.077 383.477 244.68L392.535 234.005ZM383.938 231.209C382.282 231.209 380.404 231.401 378.587 232.094L383.581 245.173C383.392 245.245 383.309 245.25 383.385 245.239C383.458 245.228 383.635 245.209 383.938 245.209V231.209ZM378.652 232.07C377.052 232.662 375.226 233.714 373.845 235.573L385.084 243.921C384.404 244.836 383.658 245.145 383.515 245.198L378.652 232.07ZM373.845 235.573C372.6 237.249 371.964 239.204 371.92 241.211L385.916 241.522C385.908 241.88 385.847 242.3 385.697 242.745C385.546 243.192 385.331 243.589 385.084 243.921L373.845 235.573ZM371.928 240.989C371.842 242.571 372.119 244.251 372.92 245.853L385.442 239.592C385.838 240.385 385.939 241.161 385.908 241.744L371.928 240.989ZM373.052 246.104C373.893 247.629 375.048 248.732 376.156 249.514L384.23 238.077C384.42 238.211 384.9 238.598 385.31 239.341L373.052 246.104ZM376.271 249.593C377.356 250.328 378.514 250.849 379.592 251.235L384.316 238.056C384.154 237.998 384.06 237.956 384.021 237.937C383.98 237.917 384.02 237.933 384.115 237.997L376.271 249.593ZM379.592 251.235C380.699 251.632 381.884 251.942 383.096 252.191L385.913 238.477C385.155 238.321 384.639 238.172 384.316 238.056L379.592 251.235ZM383.038 252.178L386.438 252.907L389.372 239.218L385.971 238.489L383.038 252.178ZM386.455 252.911C388.342 253.31 389.733 253.792 390.727 254.277L396.863 241.694C394.592 240.586 392.056 239.786 389.355 239.214L386.455 252.911ZM390.727 254.277C391.774 254.788 392.396 255.276 392.76 255.653L402.846 245.945C401.132 244.163 399.082 242.775 396.863 241.694L390.727 254.277ZM392.79 255.685C393.17 256.074 393.381 256.435 393.512 256.794L406.669 252.01C405.828 249.697 404.514 247.656 402.816 245.913L392.79 255.685ZM393.533 256.853C393.718 257.346 393.853 257.985 393.86 258.834L407.859 258.714C407.84 256.406 407.462 254.13 406.647 251.951L393.533 256.853ZM393.86 258.739C393.852 260.277 393.488 261.111 393.119 261.628L404.511 269.765C406.841 266.504 407.84 262.723 407.859 258.809L393.86 258.739ZM393.119 261.628C392.678 262.246 391.926 262.92 390.469 263.492L395.584 276.524C399.146 275.126 402.254 272.926 404.511 269.765L393.119 261.628ZM390.457 263.497C388.987 264.077 386.904 264.486 384.019 264.486V278.486C388.15 278.486 392.072 277.91 395.595 276.52L390.457 263.497ZM384.019 264.486C381.089 264.486 378.857 264.051 377.169 263.381L372.003 276.393C375.686 277.855 379.742 278.486 384.019 278.486V264.486ZM377.18 263.385C375.71 262.798 374.8 262.015 374.165 261.069L362.538 268.867C364.872 272.347 368.119 274.843 371.992 276.388L377.18 263.385ZM374.192 261.11C373.668 260.315 373.135 258.907 373.125 256.399L359.125 256.453C359.142 260.881 360.094 265.168 362.511 268.826L374.192 261.11ZM366.125 263.426H376.813V249.426H366.125V263.426ZM369.823 256.798C369.941 259.021 370.526 261.353 371.912 263.465L383.616 255.784C383.735 255.964 383.79 256.111 383.811 256.181C383.83 256.245 383.811 256.214 383.803 256.054L369.823 256.798ZM371.912 263.465C373.289 265.563 375.196 267.067 377.365 268.009L382.941 255.167C382.974 255.182 383.086 255.236 383.231 255.355C383.38 255.478 383.513 255.627 383.616 255.784L371.912 263.465ZM377.395 268.022C379.504 268.925 381.721 269.256 383.857 269.256V255.256C383.132 255.256 382.88 255.141 382.91 255.154L377.395 268.022ZM383.857 269.256C385.581 269.256 387.463 269.05 389.282 268.383L384.463 255.238C384.578 255.196 384.6 255.203 384.489 255.219C384.379 255.236 384.175 255.256 383.857 255.256V269.256ZM389.282 268.383C390.964 267.766 392.779 266.712 394.194 264.931L383.235 256.22C383.814 255.492 384.401 255.261 384.463 255.238L389.282 268.383ZM394.194 264.931C395.571 263.199 396.317 261.116 396.361 258.914L382.364 258.634C382.371 258.255 382.439 257.818 382.603 257.362C382.767 256.906 382.995 256.522 383.235 256.22L394.194 264.931ZM396.361 258.625C396.314 256.407 395.531 254.287 394.05 252.559L383.42 261.67C383.122 261.322 382.845 260.881 382.648 260.359C382.451 259.839 382.373 259.344 382.364 258.923L396.361 258.625ZM394.186 252.723C392.762 250.955 390.915 249.955 389.491 249.36L384.093 262.278C384.232 262.336 384.203 262.338 384.073 262.25C383.944 262.165 383.63 261.935 383.284 261.506L394.186 252.723ZM389.572 249.395C388.086 248.752 386.378 248.272 384.627 247.888L381.629 261.563C382.955 261.854 383.689 262.104 384.011 262.243L389.572 249.395ZM384.604 247.883L380.475 246.993L377.523 260.678L381.652 261.568L384.604 247.883ZM380.483 246.994C377.604 246.37 375.913 245.448 374.937 244.59L365.694 255.105C368.954 257.971 373.053 259.708 377.515 260.676L380.483 246.994ZM374.972 244.621C374.595 244.286 374.171 243.767 374.178 242.205L360.178 242.147C360.157 247.062 361.825 251.658 365.658 255.074L374.972 244.621ZM374.178 242.14C374.171 240.856 374.486 240.028 374.966 239.361L363.6 231.187C361.246 234.46 360.157 238.233 360.178 242.212L374.178 242.14ZM374.961 239.368C375.57 238.522 376.498 237.719 378.025 237.049L372.402 224.228C368.882 225.771 365.856 228.058 363.605 231.18L374.961 239.368ZM378.012 237.055C379.519 236.398 381.446 235.979 383.938 235.979V221.979C379.871 221.979 375.982 222.666 372.415 224.222L378.012 237.055ZM383.938 235.979C386.518 235.979 388.372 236.411 389.703 237.022L395.539 224.296C391.985 222.666 388.051 221.979 383.938 221.979V235.979ZM389.703 237.022C391.072 237.649 391.873 238.398 392.397 239.206L404.14 231.584C402.02 228.317 399.056 225.908 395.539 224.296L389.703 237.022ZM392.426 239.251C392.927 240.01 393.285 241.015 393.293 242.535L407.293 242.465C407.273 238.56 406.282 234.829 404.111 231.539L392.426 239.251ZM400.293 235.5H389.524V249.5H400.293V235.5ZM416.395 229.545H423.395V222.545H416.395V229.545ZM416.395 271V278H423.395V271H416.395ZM405.141 271H398.141V278H405.141V271ZM405.141 229.545V222.545H398.141V229.545H405.141ZM409.395 229.545V271H423.395V229.545H409.395ZM416.395 264H405.141V278H416.395V264ZM412.141 271V229.545H398.141V271H412.141ZM405.141 236.545H416.395V222.545H405.141V236.545ZM421.729 271H414.729V278H421.729V271ZM421.729 229.545V222.545H414.729V229.545H421.729ZM432.983 229.545H439.983V222.545H432.983V229.545ZM432.983 261.932H425.983V268.932H432.983V261.932ZM449.743 261.932H456.743V254.932H449.743V261.932ZM449.743 271V278H456.743V271H449.743ZM428.729 271V229.545H414.729V271H428.729ZM421.729 236.545H432.983V222.545H421.729V236.545ZM425.983 229.545V261.932H439.983V229.545H425.983ZM432.983 268.932H449.743V254.932H432.983V268.932ZM442.743 261.932V271H456.743V261.932H442.743ZM449.743 264H421.729V278H449.743V264Z" fill="white" mask="url(#path-2-outside-1_67_2)"/>
<defs>
<linearGradient id="paint0_linear_67_2" x1="250" y1="0" x2="250" y2="500" gradientUnits="userSpaceOnUse">
<stop stop-color="#FAFF00"/>
<stop offset="1" stop-color="#0085FF"/>
</linearGradient>
</defs>
</svg>
